<mxfile host="Electron" modified="2023-05-14T12:04:11.764Z" agent="Mozilla/5.0 (Windows NT 10.0; Win64; x64) AppleWebKit/537.36 (KHTML, like Gecko) draw.io/21.2.8 Chrome/112.0.5615.165 Electron/24.2.0 Safari/537.36" etag="LgHFXwS9Vp6EIeDO0Kd1" version="21.2.8" type="device">
  <diagram name="Page-1" id="Q1O7edaD9_h9Kbdjm9L1">
    <mxGraphModel dx="1276" dy="614" grid="1" gridSize="10" guides="1" tooltips="1" connect="1" arrows="1" fold="1" page="1" pageScale="1" pageWidth="827" pageHeight="1169" math="0" shadow="0">
      <root>
        <mxCell id="0" />
        <mxCell id="1" parent="0" />
        <mxCell id="x0yF818pUEKpebViEOpB-1" value="User" style="swimlane;fontStyle=1;align=center;verticalAlign=top;childLayout=stackLayout;horizontal=1;startSize=26;horizontalStack=0;resizeParent=1;resizeParentMax=0;resizeLast=0;collapsible=1;marginBottom=0;" vertex="1" parent="1">
          <mxGeometry x="190" y="80" width="120" height="104" as="geometry" />
        </mxCell>
        <mxCell id="x0yF818pUEKpebViEOpB-2" value="id_user : int" style="text;strokeColor=none;fillColor=none;align=left;verticalAlign=top;spacingLeft=4;spacingRight=4;overflow=hidden;rotatable=0;points=[[0,0.5],[1,0.5]];portConstraint=eastwest;fontStyle=4" vertex="1" parent="x0yF818pUEKpebViEOpB-1">
          <mxGeometry y="26" width="120" height="34" as="geometry" />
        </mxCell>
        <mxCell id="x0yF818pUEKpebViEOpB-3" value="nom : str" style="text;strokeColor=none;fillColor=none;align=left;verticalAlign=top;spacingLeft=4;spacingRight=4;overflow=hidden;rotatable=0;points=[[0,0.5],[1,0.5]];portConstraint=eastwest;fontStyle=0" vertex="1" parent="x0yF818pUEKpebViEOpB-1">
          <mxGeometry y="60" width="120" height="30" as="geometry" />
        </mxCell>
        <mxCell id="x0yF818pUEKpebViEOpB-4" value="" style="line;strokeWidth=1;fillColor=none;align=left;verticalAlign=middle;spacingTop=-1;spacingLeft=3;spacingRight=3;rotatable=0;labelPosition=right;points=[];portConstraint=eastwest;strokeColor=inherit;" vertex="1" parent="x0yF818pUEKpebViEOpB-1">
          <mxGeometry y="90" width="120" height="14" as="geometry" />
        </mxCell>
        <mxCell id="x0yF818pUEKpebViEOpB-5" value="Exercice" style="swimlane;fontStyle=1;align=center;verticalAlign=top;childLayout=stackLayout;horizontal=1;startSize=26;horizontalStack=0;resizeParent=1;resizeParentMax=0;resizeLast=0;collapsible=1;marginBottom=0;" vertex="1" parent="1">
          <mxGeometry x="540" y="80" width="120" height="134" as="geometry" />
        </mxCell>
        <mxCell id="x0yF818pUEKpebViEOpB-6" value="id_exercice : int" style="text;strokeColor=none;fillColor=none;align=left;verticalAlign=top;spacingLeft=4;spacingRight=4;overflow=hidden;rotatable=0;points=[[0,0.5],[1,0.5]];portConstraint=eastwest;fontStyle=4" vertex="1" parent="x0yF818pUEKpebViEOpB-5">
          <mxGeometry y="26" width="120" height="34" as="geometry" />
        </mxCell>
        <mxCell id="x0yF818pUEKpebViEOpB-7" value="nom : str" style="text;strokeColor=none;fillColor=none;align=left;verticalAlign=top;spacingLeft=4;spacingRight=4;overflow=hidden;rotatable=0;points=[[0,0.5],[1,0.5]];portConstraint=eastwest;fontStyle=0" vertex="1" parent="x0yF818pUEKpebViEOpB-5">
          <mxGeometry y="60" width="120" height="30" as="geometry" />
        </mxCell>
        <mxCell id="x0yF818pUEKpebViEOpB-16" value="image : ??" style="text;strokeColor=none;fillColor=none;align=left;verticalAlign=top;spacingLeft=4;spacingRight=4;overflow=hidden;rotatable=0;points=[[0,0.5],[1,0.5]];portConstraint=eastwest;fontStyle=0" vertex="1" parent="x0yF818pUEKpebViEOpB-5">
          <mxGeometry y="90" width="120" height="30" as="geometry" />
        </mxCell>
        <mxCell id="x0yF818pUEKpebViEOpB-8" value="" style="line;strokeWidth=1;fillColor=none;align=left;verticalAlign=middle;spacingTop=-1;spacingLeft=3;spacingRight=3;rotatable=0;labelPosition=right;points=[];portConstraint=eastwest;strokeColor=inherit;" vertex="1" parent="x0yF818pUEKpebViEOpB-5">
          <mxGeometry y="120" width="120" height="14" as="geometry" />
        </mxCell>
        <mxCell id="x0yF818pUEKpebViEOpB-9" value="" style="endArrow=none;startArrow=none;endFill=0;startFill=0;html=1;rounded=0;" edge="1" parent="1">
          <mxGeometry width="160" relative="1" as="geometry">
            <mxPoint x="310" y="100" as="sourcePoint" />
            <mxPoint x="540" y="100" as="targetPoint" />
          </mxGeometry>
        </mxCell>
        <mxCell id="x0yF818pUEKpebViEOpB-10" value="" style="endArrow=none;html=1;rounded=0;dashed=1;" edge="1" parent="1">
          <mxGeometry width="50" height="50" relative="1" as="geometry">
            <mxPoint x="420" y="210" as="sourcePoint" />
            <mxPoint x="420" y="100" as="targetPoint" />
          </mxGeometry>
        </mxCell>
        <mxCell id="x0yF818pUEKpebViEOpB-11" value="User_Exercice" style="swimlane;fontStyle=1;align=center;verticalAlign=top;childLayout=stackLayout;horizontal=1;startSize=26;horizontalStack=0;resizeParent=1;resizeParentMax=0;resizeLast=0;collapsible=1;marginBottom=0;" vertex="1" parent="1">
          <mxGeometry x="340" y="214" width="160" height="64" as="geometry" />
        </mxCell>
        <mxCell id="x0yF818pUEKpebViEOpB-20" value="nr_fois : int" style="text;strokeColor=none;fillColor=none;align=left;verticalAlign=top;spacingLeft=4;spacingRight=4;overflow=hidden;rotatable=0;points=[[0,0.5],[1,0.5]];portConstraint=eastwest;fontStyle=0" vertex="1" parent="x0yF818pUEKpebViEOpB-11">
          <mxGeometry y="26" width="160" height="30" as="geometry" />
        </mxCell>
        <mxCell id="x0yF818pUEKpebViEOpB-12" value="" style="line;strokeWidth=1;fillColor=none;align=left;verticalAlign=middle;spacingTop=-1;spacingLeft=3;spacingRight=3;rotatable=0;labelPosition=right;points=[];portConstraint=eastwest;strokeColor=inherit;" vertex="1" parent="x0yF818pUEKpebViEOpB-11">
          <mxGeometry y="56" width="160" height="8" as="geometry" />
        </mxCell>
        <mxCell id="x0yF818pUEKpebViEOpB-14" value="0, *&lt;br&gt;&lt;br&gt;choisit" style="text;html=1;strokeColor=none;fillColor=none;align=left;verticalAlign=middle;whiteSpace=wrap;rounded=0;" vertex="1" parent="1">
          <mxGeometry x="320" y="70" width="80" height="50" as="geometry" />
        </mxCell>
        <mxCell id="x0yF818pUEKpebViEOpB-15" value="0, *&lt;br&gt;&lt;br&gt;est choisi par" style="text;html=1;strokeColor=none;fillColor=none;align=right;verticalAlign=middle;whiteSpace=wrap;rounded=0;" vertex="1" parent="1">
          <mxGeometry x="440" y="80" width="90" height="30" as="geometry" />
        </mxCell>
        <mxCell id="x0yF818pUEKpebViEOpB-21" value="User" style="swimlane;fontStyle=1;align=center;verticalAlign=top;childLayout=stackLayout;horizontal=1;startSize=26;horizontalStack=0;resizeParent=1;resizeParentMax=0;resizeLast=0;collapsible=1;marginBottom=0;" vertex="1" parent="1">
          <mxGeometry x="180" y="430" width="130" height="90" as="geometry" />
        </mxCell>
        <mxCell id="x0yF818pUEKpebViEOpB-22" value="id_user     INT    &lt;pk&gt;" style="text;strokeColor=none;fillColor=none;align=left;verticalAlign=top;spacingLeft=4;spacingRight=4;overflow=hidden;rotatable=0;points=[[0,0.5],[1,0.5]];portConstraint=eastwest;fontStyle=4" vertex="1" parent="x0yF818pUEKpebViEOpB-21">
          <mxGeometry y="26" width="130" height="34" as="geometry" />
        </mxCell>
        <mxCell id="x0yF818pUEKpebViEOpB-23" value="nom    VARCHAR(50)" style="text;strokeColor=none;fillColor=none;align=left;verticalAlign=top;spacingLeft=4;spacingRight=4;overflow=hidden;rotatable=0;points=[[0,0.5],[1,0.5]];portConstraint=eastwest;fontStyle=0" vertex="1" parent="x0yF818pUEKpebViEOpB-21">
          <mxGeometry y="60" width="130" height="30" as="geometry" />
        </mxCell>
        <mxCell id="x0yF818pUEKpebViEOpB-25" value="Exercice" style="swimlane;fontStyle=1;align=center;verticalAlign=top;childLayout=stackLayout;horizontal=1;startSize=26;horizontalStack=0;resizeParent=1;resizeParentMax=0;resizeLast=0;collapsible=1;marginBottom=0;" vertex="1" parent="1">
          <mxGeometry x="540" y="430" width="150" height="120" as="geometry" />
        </mxCell>
        <mxCell id="x0yF818pUEKpebViEOpB-26" value="id_exercice    INT    &lt;pk&gt;" style="text;strokeColor=none;fillColor=none;align=left;verticalAlign=top;spacingLeft=4;spacingRight=4;overflow=hidden;rotatable=0;points=[[0,0.5],[1,0.5]];portConstraint=eastwest;fontStyle=4" vertex="1" parent="x0yF818pUEKpebViEOpB-25">
          <mxGeometry y="26" width="150" height="34" as="geometry" />
        </mxCell>
        <mxCell id="x0yF818pUEKpebViEOpB-27" value="nom    VARCHAR(50)" style="text;strokeColor=none;fillColor=none;align=left;verticalAlign=top;spacingLeft=4;spacingRight=4;overflow=hidden;rotatable=0;points=[[0,0.5],[1,0.5]];portConstraint=eastwest;fontStyle=0" vertex="1" parent="x0yF818pUEKpebViEOpB-25">
          <mxGeometry y="60" width="150" height="30" as="geometry" />
        </mxCell>
        <mxCell id="x0yF818pUEKpebViEOpB-28" value="image : ??" style="text;strokeColor=none;fillColor=none;align=left;verticalAlign=top;spacingLeft=4;spacingRight=4;overflow=hidden;rotatable=0;points=[[0,0.5],[1,0.5]];portConstraint=eastwest;fontStyle=0" vertex="1" parent="x0yF818pUEKpebViEOpB-25">
          <mxGeometry y="90" width="150" height="30" as="geometry" />
        </mxCell>
        <mxCell id="x0yF818pUEKpebViEOpB-30" value="" style="endArrow=none;startArrow=none;endFill=0;startFill=0;html=1;rounded=0;" edge="1" parent="1">
          <mxGeometry width="160" relative="1" as="geometry">
            <mxPoint x="310" y="450" as="sourcePoint" />
            <mxPoint x="540" y="450" as="targetPoint" />
          </mxGeometry>
        </mxCell>
        <mxCell id="x0yF818pUEKpebViEOpB-31" value="" style="endArrow=none;html=1;rounded=0;dashed=1;" edge="1" parent="1">
          <mxGeometry width="50" height="50" relative="1" as="geometry">
            <mxPoint x="420" y="560" as="sourcePoint" />
            <mxPoint x="420" y="450" as="targetPoint" />
          </mxGeometry>
        </mxCell>
        <mxCell id="x0yF818pUEKpebViEOpB-32" value="User_Exercice" style="swimlane;fontStyle=1;align=center;verticalAlign=top;childLayout=stackLayout;horizontal=1;startSize=26;horizontalStack=0;resizeParent=1;resizeParentMax=0;resizeLast=0;collapsible=1;marginBottom=0;" vertex="1" parent="1">
          <mxGeometry x="330" y="564" width="180" height="124" as="geometry" />
        </mxCell>
        <mxCell id="x0yF818pUEKpebViEOpB-33" value="id_user        INT    &lt;pk, fk1&gt;" style="text;strokeColor=none;fillColor=none;align=left;verticalAlign=top;spacingLeft=4;spacingRight=4;overflow=hidden;rotatable=0;points=[[0,0.5],[1,0.5]];portConstraint=eastwest;fontStyle=4" vertex="1" parent="x0yF818pUEKpebViEOpB-32">
          <mxGeometry y="26" width="180" height="34" as="geometry" />
        </mxCell>
        <mxCell id="x0yF818pUEKpebViEOpB-34" value="id_exercice    INT    &lt;pk, fk2&gt;" style="text;strokeColor=none;fillColor=none;align=left;verticalAlign=top;spacingLeft=4;spacingRight=4;overflow=hidden;rotatable=0;points=[[0,0.5],[1,0.5]];portConstraint=eastwest;fontStyle=4" vertex="1" parent="x0yF818pUEKpebViEOpB-32">
          <mxGeometry y="60" width="180" height="34" as="geometry" />
        </mxCell>
        <mxCell id="x0yF818pUEKpebViEOpB-35" value="nr_fois            INT" style="text;strokeColor=none;fillColor=none;align=left;verticalAlign=top;spacingLeft=4;spacingRight=4;overflow=hidden;rotatable=0;points=[[0,0.5],[1,0.5]];portConstraint=eastwest;fontStyle=0" vertex="1" parent="x0yF818pUEKpebViEOpB-32">
          <mxGeometry y="94" width="180" height="30" as="geometry" />
        </mxCell>
      </root>
    </mxGraphModel>
  </diagram>
</mxfile>
